# AST/ASF file generated using VICON BodyLanguage
# -----------------------------------------------
:version 1.10
:name VICON
:units
  mass 1.0
  length 0.45
  angle deg
:documentation
   .ast/.asf automatically generated from VICON data using
   VICON BodyBuilder and BodyLanguage model FoxedUp or BRILLIANT.MOD
:root
   order TX TY TZ RX RY RZ
   axis XYZ
   position 0 0 0  
   orientation 0 0 0 
:bonedata
  begin
     id 1 
     name lhipjoint
     direction 0.692814 -0.645514 0.321437 
     length 2.38754 
     axis 0 0 0  XYZ
  end
  begin
     id 2 
     name lfemur
     direction 0.34202 -0.939693 0  
     length 6.41921  
     axis 0 0 20  XYZ
    dof rx ry rz
    limits (-160.0 20.0)
           (-70.0 70.0)
           (-60.0 70.0)
  end
  begin
     id 3 
     name ltibia
     direction 0.34202 -0.939693 0   
     length 6.98247   
     axis 0 0 20   XYZ
    dof rx
    limits (-10.0 170.0)
  end
  begin
     id 4 
     name lfoot
     direction 0.0947186 -0.260237 0.960888   
     length 1.83034   
     axis -90 7.62852e-016 20   XYZ
    dof rx rz
    limits (-45.0 90.0)
           (-70.0 20.0)
  end
  begin
     id 5 
     name ltoes
     direction 1.53538e-011 -4.21952e-011 1   
     length 0.920499   
     axis -90 7.62852e-016 20   XYZ
    dof rx
    limits (-90.0 20.0)
  end
  begin
     id 6 
     name rhipjoint
     direction -0.631686 -0.693949 0.345555   
     length 2.2209  
     axis 0 0 0  XYZ 
  end
  begin
     id 7 
     name rfemur
     direction -0.34202 -0.939693 0   
     length 6.49542   
     axis 0 0 -20   XYZ
    dof rx ry rz
    limits (-160.0 20.0)
           (-70.0 70.0)
           (-70.0 60.0)
  end
  begin
     id 8 
     name rtibia
     direction -0.34202 -0.939693 0   
     length 7.21712   
     axis 0 0 -20   XYZ
    dof rx
    limits (-10.0 170.0)
 end
 begin
     id 9 
     name rfoot
     direction -0.0825378 -0.226771 0.970444   
     length 1.89724  
     axis -90 -7.62852e-016 -20   XYZ
    dof rx rz
    limits (-45.0 90.0)
           (-20.0 70.0)
  end
  begin
     id 10 
     name rtoes
     direction -1.53515e-011 -4.22016e-011 1   
     length 0.955868   
     axis -90 -7.62852e-016 -20   XYZ
    dof rx
    limits (-90.0 20.0)
  end
  begin
     id 11 
     name lowerback
     direction -0.0104711 0.984802 -0.173368   
     length 1.84931   
     axis 0 0 0   XYZ
    dof rx ry rz
    limits (-20.0 45.0)
           (-30.0 30.0)
           (-30.0 30.0)
  end
  begin
     id 12 
     name upperback
     direction -0.00286433 0.999996 -0.000382853   
     length 1.85768   
     axis 0 0 0   XYZ
    dof rx ry rz
    limits (-20.0 45.0)
           (-30.0 30.0)
           (-30.0 30.0)
  end
  begin
     id 13 
     name thorax
     direction 0.00167534 0.996793 0.0800069   
     length 1.92   
     axis 0 0 0   XYZ
    dof rx ry rz
    limits (-20.0 45.0)
           (-30.0 30.0)
           (-30.0 30.0)
  end
  begin
     id 14 
     name lowerneck
     direction -0.0672491 0.995415 0.068018   
     length 1.58923   
     axis 0 0 0   XYZ
    dof rx ry rz
    limits (-20.0 45.0)
           (-30.0 30.0)
           (-30.0 30.0)
  end
  begin
     id 15 
     name upperneck
     direction 0.0958019 0.982476 -0.159884   
     length 1.60189   
     axis 0 0 0   XYZ
    dof rx ry rz
    limits (-20.0 45.0)
           (-30.0 30.0)
           (-30.0 30.0)
  end
  begin
     id 16
     name head
     direction 0.032989 0.997338 -0.0650226  
     length 1.61681  
     axis 0 0 0   XYZ
    dof rx ry rz
    limits (-20.0 45.0)
           (-30.0 30.0)
           (-30.0 30.0)
  end
  begin
     id 17 
     name lclavicle
     direction 0.954279 0.298875 -0.00496069  
     length 2.99449  
     axis 0 0 0   XYZ
    dof ry rz
    limits (-20.0 10.0)
           (0.0 20.0)
  end
  begin
     id 18 
     name lhumerus
     direction 1 -4.48985e-011 -4.2057e-027   
     length 4.79185   
     axis 180 -30 -90   XYZ
    dof rx ry rz
    limits (-60.0 90.0)
           (-90.0 90.0)
           (-90.0 90.0)
  end
  begin
     id 19
     name lradius
     direction 1 -4.48945e-011 1.15441e-028   
     length 2.65553   
     axis 180 -30 -90   XYZ
    dof rx
    limits (-10.0 170.0)
  end
  begin
     id 20
     name lwrist
     direction 1 -4.4899e-011 4.8894e-028   
     length 1.32777   
     axis -2.56392e-016 90 90   XYZ
    dof ry
    limits (-180.0 0.0)
 end
  begin
     id 21 
     name lhand
     direction 1 -4.48908e-011 9.7788e-028   
     length 0.743904   
     axis -6.23971e-016 90 90   XYZ
    dof rx rz
    limits (-90.0 90.0)
           (-45.0 45.0)
  end
  begin
     id 22 
     name lfingers
     direction 1 -4.49068e-011 1.95576e-027   
     length 0.599754   
     axis -1.24794e-015 90 90   XYZ
    dof rx
    limits (0.0 90.0)
  end
  begin
     id 23
     name lthumb
     direction 0.707107 -6.34883e-011 0.707107   
     length 0.861131   
     axis -90 45 2.85299e-015   XYZ
    dof rx rz
    limits (-45.0 45.0)
           (-45.0 45.0)
  end
  begin
     id 24 
     name rclavicle
     direction -0.957921 0.286916 0.00811568   
     length 3.06817  
     axis 0 0 0   XYZ 
    dof ry rz
    limits (-10.0 20.0)
           (-20.0 0.0)
  end
  begin
     id 25 
     name rhumerus
     direction -1 -4.48971e-011 -3.07942e-027  
     length 4.77254   
     axis 180 30 90   XYZ
    dof rx ry rz
    limits (-90.0 60.0)
           (-90.0 90.0)
           (-90.0 90.0)
  end
  begin
     id 26 
     name rradius
     direction -1 -4.48957e-011 -9.6815e-028   
     length 2.75995   
     axis 180 30 90   XYZ
    dof rx
    limits (-10.0 170.0)
  end
  begin
     id 27 
     name rwrist
     direction -1 -4.48979e-011 4.8894e-028   
     length 1.37997   
     axis -2.56392e-016 -90 -90   XYZ
    dof ry
    limits (-180.0 0.0)
  end
  begin
     id 28
     name rhand
     direction -1 -4.48906e-011 9.7788e-028   
     length 0.701619   
     axis -6.23971e-016 -90 -90   XYZ
    dof rx rz
    limits (-90.0 90.0)
           (-45.0 45.0)
  end
  begin
     id 29
     name rfingers
     direction -1 -4.49018e-011 1.95576e-027   
     length 0.565663   
     axis -1.24794e-015 -90 -90   XYZ
    dof rx
    limits (0.0 90.0)
  end
  begin
     id 30
     name rthumb
     direction -0.707107 -6.34881e-011 0.707107   
     length 0.812183   
     axis -90 -45 -2.85299e-015   XYZ
    dof rx rz
    limits (-45.0 45.0)
           (-45.0 45.0)
  end
:hierarchy
  begin
    root lhipjoint rhipjoint lowerback
    lhipjoint lfemur
    lfemur ltibia
    ltibia lfoot
    lfoot ltoes
    rhipjoint rfemur
    rfemur rtibia
    rtibia rfoot
    rfoot rtoes
    lowerback upperback
    upperback thorax
    thorax lowerneck lclavicle rclavicle
    lowerneck upperneck
    upperneck head
    lclavicle lhumerus
    lhumerus lradius
    lradius lwrist
    lwrist lhand lthumb
    lhand lfingers
    rclavicle rhumerus
    rhumerus rradius
    rradius rwrist
    rwrist rhand rthumb
    rhand rfingers
  end

#!OML:ASF F:\VICON\USERDATA\INSTALL\rory3\rory3.ASF
:FULLY-SPECIFIED
:DEGREES
334
root -0.216989 15.2979 -0.687485 -2.47036 -0.28843 -3.85461
lowerback 17.0635 -0.261616 -4.60677
upperback 0.287388 -1.55723 -3.16249
thorax -9.26472 -0.617523 -0.42879
lowerneck -9.41096 -2.12223 -8.78263
upperneck 15.7939 -1.08831 -2.22382
head 6.43621 -1.22213 0.63494
rclavicle 1.86858e-014 -1.27222e-014
rhumerus 0.168729 -26.0628 18.352
rradius 42.6149
rwrist -24.0433
rhand 12.8112 11.2892
rfingers 7.12502
rthumb 37.7875 -14.5675
lclavicle 1.86858e-014 -1.27222e-014
lhumerus -14.8879 15.0353 -10.6864
lradius 46.0824
lwrist 51.0629
lhand 8.67056 18.7989
lfingers 7.12502
lthumb 33.8643 45.6126
rfemur -15.1506 -0.357707 21.7818
rtibia 42.6864
rfoot -20.3544 -3.49087
rtoes -12.2132
lfemur -15.4428 1.61618 -9.01672
ltibia 42.3104
lfoot -17.6118 -6.41713
ltoes -12.4838
335
root -0.226992 15.2982 -0.683523 -2.42703 -0.0095875 -4.04574
lowerback 17.1979 -0.202672 -4.74872
upperback 0.158574 -1.54969 -3.41874
thorax -9.48832 -0.609094 -0.629818
lowerneck -9.46568 -2.12613 -8.81947
upperneck 15.7902 -1.09249 -2.15054
head 6.44511 -1.22029 0.663545
rclavicle 1.31198e-014 2.22639e-014
rhumerus 0.00904815 -25.1836 18.7564
rradius 42.8038
rwrist -24.6827
rhand 12.6463 11.25
rfingers 7.12502
rthumb 37.6317 -14.6485
lclavicle 1.31198e-014 2.22639e-014
lhumerus -14.6978 15.0721 -10.6738
lradius 46.115
lwrist 51.1587
lhand 8.76014 18.767
lfingers 7.12502
lthumb 33.9495 45.5619
rfemur -15.0788 -0.719025 22.0053
rtibia 42.5358
rfoot -20.3203 -3.50701
rtoes -12.4469
lfemur -15.6013 1.41406 -8.78214
ltibia 42.372
lfoot -17.6196 -6.46032
ltoes -12.447
336
root -0.235596 15.2984 -0.678583 -2.40729 0.25636 -4.3454
lowerback 17.3615 -0.142564 -4.74946
upperback 0.0215892 -1.51401 -3.64821
thorax -9.74123 -0.593053 -0.889948
lowerneck -9.36351 -2.13395 -8.76914
upperneck 15.6368 -1.1229 -2.17973
head 6.37837 -1.22744 0.645047
rclavicle 5.36719e-015 2.8625e-014
rhumerus -0.138502 -24.8377 18.9773
rradius 43.0372
rwrist -24.8001
rhand 12.7584 11.1971
rfingers 7.12502
rthumb 37.7376 -14.6731
lclavicle 5.36719e-015 2.8625e-014
lhumerus -14.4426 15.0333 -10.6374
lradius 46.1217
lwrist 51.2242
lhand 8.74386 18.7708
lfingers 7.12502
lthumb 33.934 45.5692
rfemur -14.9734 -0.990779 22.3464
rtibia 42.3589
rfoot -20.2868 -3.48357
rtoes -12.5364
lfemur -15.7341 1.22189 -8.41687
ltibia 42.4358
lfoot -17.5916 -6.57805
ltoes -12.7183
337
root -0.243095 15.3021 -0.670397 -2.38101 0.518731 -4.52618
lowerback 17.3815 -0.0728102 -4.84149
upperback -0.0720069 -1.47279 -3.89569
thorax -9.86353 -0.573447 -1.12042
lowerneck -9.1723 -2.15282 -8.86742
upperneck 15.4217 -1.17204 -2.11906
head 6.27934 -1.24221 0.678569
rclavicle 1.59028e-015 5.56597e-014
rhumerus -0.144135 -24.7459 19.1125
rradius 43.1486
rwrist -24.7874
rhand 12.9644 11.0849
rfingers 7.12502
rthumb 37.9322 -14.7327
lclavicle 1.59028e-015 5.56597e-014
lhumerus -14.254 15.0316 -10.5583
lradius 46.2149
lwrist 51.2655
lhand 8.78843 18.8648
lfingers 7.12502
lthumb 33.9763 45.6538
rfemur -14.8659 -1.29003 22.5434
rtibia 42.1677
rfoot -20.2504 -3.4036
rtoes -12.4824
lfemur -15.8346 0.996502 -8.20119
ltibia 42.4646
lfoot -17.6018 -6.62465
ltoes -12.9501
338
root -0.251869 15.3068 -0.660786 -2.36584 0.734194 -4.79822
lowerback 17.3677 -0.0162186 -4.90135
upperback -0.146365 -1.43784 -4.13174
thorax -9.94548 -0.559114 -1.35533
lowerneck -9.11499 -2.15838 -8.86256
upperneck 15.3157 -1.20362 -2.03641
head 6.23637 -1.24606 0.70251
rclavicle 1.07344e-014 1.59028e-014
rhumerus 0.058623 -24.7571 19.0756
rradius 43.0958
rwrist -24.8091
rhand 13.212 11.0979
rfingers 7.12502
rthumb 38.166 -14.6559
lclavicle 1.07344e-014 1.59028e-014
lhumerus -14.1369 15.0388 -10.5971
lradius 46.2724
lwrist 51.2951
lhand 8.87375 18.8546
lfingers 7.12502
lthumb 34.0574 45.6256
rfemur -14.7349 -1.55045 22.862
rtibia 41.9531
rfoot -20.1931 -3.44811
rtoes -12.5032
lfemur -15.9001 0.811734 -7.87327
ltibia 42.4742
lfoot -17.5604 -6.70877
ltoes -12.7372
339
root -0.259658 15.3128 -0.652944 -2.30791 0.925619 -4.99687
lowerback 17.3534 0.0243566 -5.08393
upperback -0.216768 -1.44822 -4.36047
thorax -10.0196 -0.560135 -1.5018
lowerneck -9.19201 -2.14307 -8.8153
upperneck 15.2404 -1.19438 -1.9727
head 6.22445 -1.23143 0.715642
rclavicle 1.33186e-014 1.90833e-014
rhumerus 0.354965 -24.9692 18.8901
rradius 43.0369
rwrist -24.7808
rhand 13.502 11.1931
rfingers 7.12502
rthumb 38.4397 -14.4851
lclavicle 1.33186e-014 1.90833e-014
lhumerus -14.1954 15.0367 -10.7292
lradius 46.3598
lwrist 51.3925
lhand 8.87787 18.8309
lfingers 7.12502
lthumb 34.0613 45.601
rfemur -14.6738 -1.81491 23.0939
rtibia 41.7648
rfoot -20.1149 -3.4508
rtoes -12.6584
lfemur -15.9911 0.662421 -7.63675
ltibia 42.4499
lfoot -17.4907 -6.73208
ltoes -12.6377
340
root -0.265604 15.3173 -0.646188 -2.22703 1.15246 -5.10878
lowerback 17.3044 0.0569846 -5.3541
upperback -0.2905 -1.48384 -4.58447
thorax -10.0757 -0.568675 -1.58755
lowerneck -9.24324 -2.12233 -8.80802
upperneck 15.1567 -1.17582 -1.90245
head 6.20565 -1.21364 0.738269
rclavicle 2.98177e-015 -1.59028e-014
rhumerus 0.67026 -25.22 18.683
rradius 42.974
rwrist -24.6399
rhand 13.6175 11.231
rfingers 7.12502
rthumb 38.5488 -14.4168
lclavicle 2.98177e-015 -1.59028e-014
lhumerus -14.2365 15.0285 -10.8159
lradius 46.3623
lwrist 51.4661
lhand 8.98135 18.7555
lfingers 7.12502
lthumb 34.1596 45.5037
rfemur -14.5988 -2.0671 23.2188
rtibia 41.5837
rfoot -20.1113 -3.39483
rtoes -12.5598
lfemur -16.129 0.484312 -7.50718
ltibia 42.4437
lfoot -17.4713 -6.75125
ltoes -12.6375
